<svg xmlns="http://www.w3.org/2000/svg" viewBox="0 0 171.94 200">
  <g id="fe958494-d7f7-4d79-abbb-44e465cd894c" data-name="Camada 2">
    <g id="a004beed-f1c7-4118-8aa9-2334960bb20d" data-name="Camada 1">
      <path d="M80.91,0H91.07c.63.12,1.26.23,1.89.36,5.4,1.1,11,1.74,16.18,3.39A73.73,73.73,0,0,1,143.2,26.27a75.54,75.54,0,0,1,18.88,48c.3,8.59.08,17.19.07,25.78a27,27,0,0,1-2.61,11.9c-5.48,11.23-14.53,17-27,17.25a5.19,5.19,0,0,0-4.47,2.26c-2.29,2.82-5,5.32-7.48,7.94-.45.47-1,.88-1.84,1.67,5.88,0,11.15-.17,16.41,0,11.2.42,20.19,5.1,26.41,14.55,4.79,7.3,7.8,15.41,10,23.79a14.47,14.47,0,0,1,0,6.18C170,194.34,162.77,200,153.54,200Q86,200,18.42,200c-.59,0-1.18,0-1.76,0C5.93,199.38-2.14,189.11.51,178.88a77.52,77.52,0,0,1,9.58-22.73c5.16-8,12.34-13.29,21.91-14.41,6.11-.71,12.33-.52,18.5-.72.74,0,1.49,0,2.12,0-3.06-3.32-6.14-6.47-9-9.83a4.48,4.48,0,0,0-3.84-1.93c-17.18,0-29.94-12.79-30-30,0-7.36,0-14.71,0-22.07A74.72,74.72,0,0,1,17.3,43.82C28.07,21.91,45.31,7.89,69,2,72.91,1,76.94.65,80.91,0Zm33.31,129.28H98.12a5.83,5.83,0,0,1-5.78-3.56c-1.74-3.94,1.19-8.09,5.76-8.12,7.74,0,15.49,0,23.23-.06a2.52,2.52,0,0,0,1.94-1c3.33-7,4.12-14.52,3.62-22.4h-17a29,29,0,0,1-19.06-6.82c-1.77-1.48-3.37-3.15-5.09-4.77C79,91.16,69.89,94.63,59.05,94.17c-4.1-.17-8.2,0-12.3,0-.56,0-1.12.08-1.65.11-1.66,19.54,8.32,36.74,25.14,43.62C87.65,145,105.25,138.87,114.22,129.28ZM33.85,70.5c3.5-26.92,25-45.65,49.23-46.94a50.09,50.09,0,0,1,31.42,8.56c13.66,9.21,21.34,22.21,23.65,38.37l12,.74c-2.25-20.89-11.73-37.83-29.63-49.12-22.2-14-45.36-14.27-67.88-.81C34,32.46,24.28,49.74,22.08,71.18ZM86,184.37l23.31-31.48H62.67Z" fill="#101010"/>
    </g>
  </g>
</svg>
