<svg xmlns="http://www.w3.org/2000/svg" viewBox="0 0 200 174.06">
  <g id="f438fb8d-01dd-4a5c-8a80-34d92f4d08de" data-name="Camada 2">
    <g id="aaf28897-8073-4928-ab9b-cbc9cf6f2c6b" data-name="Camada 1">
      <g>
        <path d="M0,48.91c6.27-.9,12.54-1.75,18.78-2.78A3.69,3.69,0,0,0,21,44.28c2.74-5.34,5.35-10.74,8.18-16.46.45.85.77,1.42,1.06,2,2.41,4.86,4.74,9.75,7.26,14.55a3.87,3.87,0,0,0,2.43,1.79c6,1,12,1.83,18,2.71l.71.82a7.45,7.45,0,0,0-1.94.95c-3.87,3.7-7.66,7.49-11.54,11.19a3.24,3.24,0,0,0-1,3.3c1,5.52,1.95,11.06,2.89,16.59a10.27,10.27,0,0,1,0,1.39c-4.27-2.24-8.61-4.12-12.5-6.67s-6.91-2.36-10.65,0-8.14,4.36-12.49,6.64c.05-.8,0-1.36.12-1.89.93-5.47,1.92-10.93,2.78-16.41a3.23,3.23,0,0,0-.58-2.46C9.36,58,4.93,53.76.52,49.47c-.11-.11-.34-.11-.52-.17Z" fill="#101010"/>
        <path d="M76.52,174c4.22-6.27,3.55-10.82-2.27-15.75,3.22-2.35,5.3-5.36,5-9.5s-2.89-6.81-6.44-8.67c6.41-6.54,4-13.85-2.27-17.34,1.23-1.77,2.47-3.55,3.82-5.51.34,1.42.68,2.82,1,4.23,2.31,10.54,9.64,16.9,20.41,17.68,1.3.1,2.61.19,3.91.26s2.21-.27,2.26-1.59-1-1.65-2.12-1.77a64.5,64.5,0,0,1-8.13-1c-7.22-1.73-11.36-6.56-13-13.67-2.65-11.71-5.39-23.4-7.81-35.16a20.71,20.71,0,0,1,.27-8.29,7,7,0,0,1,6.48-5.7,7.31,7.31,0,0,1,7.47,4,20.86,20.86,0,0,1,2,5.89c1.76,9,6.12,16.32,14.12,21.15,4.4,2.65,8.89,5.16,13.38,7.65a5.81,5.81,0,0,0,2.64.47c5.94,0,11.88,0,18,0v46.18h-2c-5.42,0-10.85,0-16.27,0a2.8,2.8,0,0,0-3.09,2c-1.88,4.74-5.53,7.83-9.91,10.15a40.62,40.62,0,0,1-17,4.22C83.53,174.13,80.14,174,76.52,174Z" fill="#101010"/>
        <path d="M165.27,134.62q0,14.79,0,29.58c0,3.73-1.19,4.93-4.91,4.94q-8.43,0-16.85,0c-3.66,0-4.91-1.27-4.91-5q0-29.67,0-59.36c0-3.72,1.22-4.91,4.95-4.92h16.84c3.71,0,4.88,1.18,4.88,5Q165.28,119.73,165.27,134.62ZM151.94,106a8.44,8.44,0,0,0-.09,16.87,8.52,8.52,0,0,0,8.54-8.41A8.44,8.44,0,0,0,151.94,106Z" fill="#101010"/>
        <path d="M82.37,55.33c1-6,1.92-11.61,3-17.24a4.61,4.61,0,0,0-1.54-4.82c-3.7-3.4-7.23-7-10.84-10.48a18.07,18.07,0,0,0-1.7-1.29l.32-.5c4.31-.63,8.61-1.61,13-1.81,5-.22,8.11-2,9.83-7,1.46-4.15,3.83-8,5.94-12.24.4.69.7,1.14.94,1.62,2.44,4.9,4.9,9.8,7.27,14.74a3.23,3.23,0,0,0,2.79,2c6,.78,11.87,1.71,17.8,2.58l.63.78a8,8,0,0,0-1.85,1c-3.64,3.47-7.15,7.08-10.86,10.47a4.71,4.71,0,0,0-1.59,5c1.08,5.56,2,11.16,3,17.11-1-.49-1.7-.85-2.41-1.22-4.56-2.39-9.14-4.75-13.67-7.21a3.53,3.53,0,0,0-3.81,0C94,49.35,89.32,51.71,84.7,54.14Z" fill="#101010"/>
        <path d="M189.47,83.15C184.15,80.36,179,77.78,174,75a4.42,4.42,0,0,0-4.86,0c-5,2.78-10.12,5.36-15.56,8.21.63-3.8,1.19-7.24,1.77-10.68.43-2.51.82-5,1.34-7.52a3,3,0,0,0-1-3.13c-3.87-3.71-7.68-7.47-11.51-11.21-.5-.49-1-1-1.66-1.73,5.58-.83,10.84-1.79,16.14-2.31a6,6,0,0,0,5.66-4.07c1.88-4.37,4.15-8.57,6.26-12.83.28-.57.6-1.11,1-1.91,2.6,5.26,5.24,10.21,7.5,15.33,1,2.35,2.55,3.11,4.86,3.39,5,.59,10,1.37,14.93,2.09a8.21,8.21,0,0,1,1.06.24c-2.88,3.08-5.54,6.66-8.91,9.35C187,61.53,185.8,65,187.32,70c1.09,3.59,1.37,7.43,2,11.16C189.41,81.75,189.41,82.32,189.47,83.15Z" fill="#101010"/>
        <path d="M54.45,125c3.4,0,6.79,0,10.18,0a13,13,0,0,1,2.34.15c3.77.75,6.47,3.86,6.29,7.18A7.35,7.35,0,0,1,66.07,139q-11.64.24-23.29,0A7.24,7.24,0,0,1,35.56,132a7.33,7.33,0,0,1,7.34-7c3.85-.13,7.7,0,11.55,0Z" fill="#101010"/>
        <path d="M58.43,142.43c2.88,0,5.75,0,8.63,0a15.62,15.62,0,0,1,2.73.21A6.89,6.89,0,0,1,70,156.34a14.24,14.24,0,0,1-2.92.28c-5.81,0-11.63,0-17.44,0a14.66,14.66,0,0,1-2.73-.24,7.18,7.18,0,0,1-6.13-7.06,6.93,6.93,0,0,1,6.32-6.64c3.76-.31,7.57-.07,11.35-.07Z" fill="#101010"/>
        <path d="M54.5,121.63c-2.62,0-5.24.17-7.84-.06a12.67,12.67,0,0,1-5-1.4,6,6,0,0,1-3.17-6.62c.52-3.09,2.62-4.89,5.52-5.73a11.56,11.56,0,0,1,3.11-.36q7.54-.06,15.09,0a13.81,13.81,0,0,1,2.72.29,6.89,6.89,0,0,1-.65,13.73c-3.25.24-6.53.05-9.79.05Z" fill="#101010"/>
        <path d="M61.58,174.05c-2.22,0-4.44,0-6.66,0-4.3-.11-7.73-3.26-7.74-7s3.33-6.94,7.53-7.05q6.85-.19,13.72,0c4.2.11,7.53,3.34,7.54,7s-3.44,7-7.72,7.06C66,174.09,63.8,174.05,61.58,174.05Z" fill="#101010"/>
      </g>
    </g>
  </g>
</svg>
