<svg xmlns="http://www.w3.org/2000/svg" viewBox="0 0 200 200.06">
  <g id="b774a321-31db-4d6d-b778-8fce4c360e63" data-name="Camada 2">
    <g id="bd7ca0d4-abe8-4967-8f10-96b97d33332e" data-name="Camada 1">
      <g>
        <path d="M12.9,127.72c.34-3.89.68-8,1.08-12.14,1-10.36,1.81-20.74,3-31.07,2.15-18.18,11.06-32.36,26.05-42.76a4.58,4.58,0,0,1,2.48-.65q30.79-.06,61.58,0A5.26,5.26,0,0,1,110,42c15,10.55,23.74,24.89,25.78,43.16,1,8.79,1.73,17.61,2.57,26.41.08.81.09,1.62.14,2.55-3.13.16-6.15.21-9.16.48a40,40,0,0,0-18.25,6.61c-3.56,2.3-7.08,4.65-10.75,6.77a10,10,0,0,1-4.57,1.32c-7.81.13-15.62.13-23.43,0a23,23,0,0,0-18.52,8.15,2.18,2.18,0,0,1-2.7.66c-9.61-2.83-19.23-5.64-28.88-8.36C19.3,129,16.3,128.46,12.9,127.72Zm67.21-19.23c.63-.13,1.28-.28,1.94-.4C89,106.8,93.22,101.32,92.9,94a12.75,12.75,0,0,0-12-12.37c-2.73-.23-5.5-.07-8.24-.24a5.89,5.89,0,0,1-5.72-6.17c0-3.81,2.47-6.35,6.48-6.4,5.27-.07,10.55,0,15.83,0,2.49,0,3.86-1.41,3.78-3.67s-1.4-3.38-3.84-3.43c-3-.07-6,0-9.11,0-.4-3,.9-7-3.59-7.09-4.88-.08-3.24,4.29-3.82,7-.77.15-1.42.29-2.08.41-6.94,1.34-11.1,6.83-10.74,14.2A12.76,12.76,0,0,0,72,88.44c2.59.2,5.2,0,7.8.19,4,.24,6.35,3,6,7-.27,3.37-2.78,5.59-6.55,5.63-5.28.06-10.56,0-15.84,0-2.6,0-4,1.78-3.59,4.22.39,2.14,1.93,2.87,3.9,2.89,3,0,6,0,9,0,.29,5.79,1,7.1,3.46,7.23S79.33,114.59,80.11,108.49Z" fill="#101010"/>
        <path d="M48.58,144.81c0,4.28-.56,8.2.11,11.89,2,11.18,11.45,18.72,22.78,18.76,8.33,0,16.66,0,25,0,2.93,0,4.45-1.2,4.5-3.46s-1.53-3.67-4.55-3.67c-8.41,0-16.81.1-25.22,0-11.25-.2-18.41-10.45-14.92-21.15A14.89,14.89,0,0,1,70.1,136.61c8.33-.22,16.67-.17,25-.1a17.51,17.51,0,0,0,9.66-2.8,180.59,180.59,0,0,1,17.81-10.06c3.3-1.53,7.3-2,11-2.14,8-.31,16.06-.1,24.1-.1H160V175.9c-4.95-1-8.53,2.11-12.42,4.35-7.08,4.09-14.1,8.27-21.21,12.32-16.14,9.21-32.71,10-49.54,2.07q-34.09-16-68.08-32.23c-9.11-4.33-11.49-14.48-5.18-22.1,3.49-4.21,8.1-5.95,13.37-4.54C27.66,138.65,38.33,141.86,48.58,144.81Z" fill="#101010"/>
        <path d="M200,148.7q0,12.83,0,25.64c0,5.45-2.79,8.23-8.23,8.25-4.54,0-9.07,0-13.61,0C171.46,182.51,167,178,167,171.35q0-22.86,0-45.72c0-6.4,4.49-10.89,10.94-11,4.69-.06,9.37,0,14.05,0,5.19,0,8,2.81,8,8Q200,135.65,200,148.7Zm-13-15.39a3.46,3.46,0,0,0-3.46-3.58,3.51,3.51,0,0,0-.14,7A3.46,3.46,0,0,0,187,133.31Z" fill="#101010"/>
        <path d="M76.45,33.93c-7.73,0-15.46,0-23.2,0a3.13,3.13,0,0,1-3-1.68,31.93,31.93,0,0,1-5-16.41c-.09-3.86,0-7.73,0-11.59,0-3,1.39-4.3,4.42-4.29A30.41,30.41,0,0,1,63.54,3.36c8.64,4.44,17.23,4.35,25.84-.08A30.1,30.1,0,0,1,103.57,0c2.19,0,3.84,1.18,3.86,3.2,0,6.74.76,13.53-1,20.18-.19.72-.38,1.44-.62,2.14-2.81,8-3.33,8.41-11.7,8.41Z" fill="#101010"/>
      </g>
    </g>
  </g>
</svg>
