<svg xmlns="http://www.w3.org/2000/svg" viewBox="0 0 200 207.38">
  <g id="fe7d01fa-a805-443f-b5e4-bf69ad2afe80" data-name="Camada 2">
    <g id="e428ea9f-c3f1-4f11-af54-1837bc7df644" data-name="Camada 1">
      <path d="M159.58,0c2.36.49,4.76.86,7.09,1.47,17.67,4.69,31.11,19.87,33,37.23,2.16,19.63-6.84,36.87-23.9,45.69-1.16.6-1.32,1.14-1,2.34,7.16,25.58-9.2,50.71-35.47,54.48a38.46,38.46,0,0,1-15.07-.72c-2.46-.62-4,.09-5.53,2.09Q95.8,173.46,72.8,204.28a4.32,4.32,0,0,1-3.63,2c-5.46.26-10.9.72-16.55,1.12-.94-4.07-1.86-8-2.77-12-.31-1.38-.63-2.76-.89-4.15-.53-2.76.44-4.38,3.14-5.2,2.06-.63,4.15-1.18,6.21-1.81,4.28-1.3,5.84-3.83,5.15-8.24-.22-1.39-.4-2.78-.61-4.28,2.3-.69,4.49-1.31,6.67-2,3.66-1.16,5.15-3.54,4.67-7.39-.2-1.59-.44-3.18-.68-4.89,2.3-.7,4.49-1.32,6.66-2,3.71-1.19,5.55-3.84,4.63-7.56-1.08-4.4-.4-8,2.75-11.41,3-3.27,5.3-7.15,8.09-10.62,1.72-2.15,1.77-4,.47-6.43a42.87,42.87,0,0,1,74.44-42.47c.31.51.65,1,1,1.5,10.15-4,23.33-17.77,21.22-38-1.78-17-15.87-31.13-33.07-33-19-2-33.5,9.83-38.51,22.32,14.85,2.15,26,9.69,33.16,22.89-4.31-1.12-8.45-2.48-12.7-3.26-25.75-4.73-52.17,13.54-57,39.25a49.45,49.45,0,0,0-.41,17.7,2.42,2.42,0,0,1-1.42,2.89q-31.7,18.91-63.32,38a3.61,3.61,0,0,1-3.4.35C10.8,145.62,5.49,143.88,0,142q1.11-6.58,2.22-13.12c.19-1.13.37-2.26.6-3.39C3.34,123,5,121.8,7.65,122.07s5,.56,7.45.72c3.46.22,5.63-1.36,6.59-4.7.46-1.61.84-3.25,1.33-5.12,2.16.2,4.28.36,6.39.62,4.2.51,6.88-1.34,7.84-5.46.33-1.43.68-2.86,1-4.41l6.14.68c4.63.53,7.33-1,8.06-5.57a11.3,11.3,0,0,1,6.8-9.09c3.92-1.91,7.48-4.57,11.34-6.64,2.6-1.4,3.42-3.24,3-6.1a39.88,39.88,0,0,1,4.74-24.81c7-12.82,17.88-20.25,32.36-22.24a4,4,0,0,0,3.59-2.71Q124.81,4.13,150,.35A6.59,6.59,0,0,0,151.07,0Zm-44,134.16c-.09-2.14-.9-3.28-2.49-3.79-1.9-.62-3.22.27-4.33,1.75q-22.6,30.34-45.23,60.68c-1.58,2.13-1.4,4.25.38,5.52s3.81.76,5.29-1.21q22.71-30.41,45.37-60.84A10.23,10.23,0,0,0,115.54,134.16Zm-37.87-32.5c0-.18-.1-.44-.17-.7-.73-2.66-3.24-3.42-6-1.76Q49.2,112.55,26.91,125.93c-3.93,2.36-7.94,4.6-11.75,7.14a4.71,4.71,0,0,0-1.87,3.42,4,4,0,0,0,2.21,2.93,5,5,0,0,0,3.74-.63c9.59-5.63,19.11-11.39,28.65-17.11q13.62-8.16,27.25-16.3A4.4,4.4,0,0,0,77.67,101.66Zm79.77-12.14c-2.28-.13-4.43-.31-6.57-.34a3.51,3.51,0,0,0-2,.67c-3.51,2.57-7.95,2-10.35-1.4a7.09,7.09,0,0,1,1.71-9.86c3.38-2.39,7.76-1.4,10.2,2.24.34.5.92,1.15,1.43,1.18,2.1.13,4.22.06,6.36.06a14,14,0,0,0-14.26-12,14.3,14.3,0,0,0-2.6,28.3C148.39,99.74,155.41,95.9,157.44,89.52Z" fill="#101010"/>
    </g>
  </g>
</svg>
