<svg xmlns="http://www.w3.org/2000/svg" viewBox="0 0 204.98 205.31">
  <g id="ae69d234-e015-4fbc-85e8-2cd88e1d5097" data-name="Camada 2">
    <g id="a306105e-ce3b-4c28-964f-53d51fc77316" data-name="Camada 1">
      <g>
        <path d="M101.87,203.59c-2.31-3.43-4.67-6.82-6.89-10.3a5.12,5.12,0,0,0-4.09-2.57,86.57,86.57,0,0,1-22.31-6,4.92,4.92,0,0,0-3.42.11c-3.78,1.65-7.44,3.57-11.18,5.32-2.47,1.16-4.56.7-6.55-1.31C37.21,178.52,26.9,168.28,16.64,158c-2.31-2.31-2.55-3.93-1.15-7,1.64-3.54,3.26-7.09,5-10.58a4.21,4.21,0,0,0,.11-4,88.68,88.68,0,0,1-6.21-22.73,5,5,0,0,0-1.81-2.94c-3.06-2.28-6.31-4.3-9.43-6.51S-.52,100.72.48,97C4.11,83.32,7.8,69.68,11.34,56c.78-3,2.47-4.56,5.49-4.8,4-.32,8.1-.56,12.13-1a4,4,0,0,0,2.49-1.29A97.72,97.72,0,0,1,49,31.43a3.91,3.91,0,0,0,1.27-2.49c.45-4,.74-8.09,1.07-12.13.25-3.15,1.92-4.75,5-5.55C69.84,7.78,83.32,4.11,96.81.52c4-1.06,5.22-.66,7.58,2.66,2.16,3.06,4.11,6.27,6.35,9.26a5.24,5.24,0,0,0,3.1,2,89.13,89.13,0,0,1,22.73,6.23,3.85,3.85,0,0,0,3.71-.13c3.59-1.88,7.26-3.59,10.93-5.32,2.56-1.22,4.68-.72,6.73,1.36Q173,31.78,188.27,46.85c2.25,2.21,2.65,4.47,1.38,7.17-1.66,3.52-3.31,7.06-5.11,10.51a4.09,4.09,0,0,0-.16,3.93,78.07,78.07,0,0,1,6,22.28,4.88,4.88,0,0,0,2.49,3.88c3,1.95,6,4,8.91,6,3.28,2.31,3.69,3.54,2.68,7.34-3.61,13.57-7.3,27.12-10.81,40.72-.8,3.12-2.53,4.69-5.6,5-3.88.42-7.78.75-11.64,1.28a4.41,4.41,0,0,0-2.67,1.4,99.27,99.27,0,0,1-17.34,17.36,4.26,4.26,0,0,0-1.38,2.66c-.46,3.95-.73,7.93-1.05,11.9-.25,3.09-1.74,4.84-4.89,5.65-13.76,3.54-27.46,7.26-41.17,11C105.63,205.58,103.61,205.53,101.87,203.59ZM148.15,56.23c-24.8-25-66.36-24.73-91.8.36-27.44,27.06-22.84,69,.24,91.83,24.2,24,64.51,26.7,91.76.21C174.13,123.56,173.81,82,148.15,56.23Z" fill="#101010"/>
        <path d="M122.05,97c3-3,6-6.1,9.11-9.11,3.69-3.63,7.71-2.64,9.32,2.27,9.43,28.83-15.9,57.33-45.8,51.44a4.17,4.17,0,0,0-4.45,1.4c-2.7,2.93-5.64,5.63-8.4,8.5a2.23,2.23,0,0,1-3,.62,55.25,55.25,0,0,1-25.95-26,2.22,2.22,0,0,1,.63-3c2.91-2.83,5.71-5.78,8.65-8.57a3.8,3.8,0,0,0,1.28-4.06C57.18,80.81,85.74,55.14,114.6,64.42c5.19,1.67,6.16,5.67,2.28,9.57C110.94,80,105,86,99,91.85A3.76,3.76,0,0,0,97.78,96c.63,2.57,1,5.22,1.64,7.78a3.07,3.07,0,0,0,1.84,1.84,74.48,74.48,0,0,0,8.49,1.67,3.86,3.86,0,0,0,2.81-.84C115.81,103.36,118.9,100.15,122.05,97Z" fill="#101010"/>
      </g>
    </g>
  </g>
</svg>
