<svg xmlns="http://www.w3.org/2000/svg" viewBox="0 0 200 173.96">
  <g id="f85a1ace-3879-4097-8aee-d14272428eb4" data-name="Camada 2">
    <g id="a09b1474-9d01-4f66-9e92-a1c9f06dcce4" data-name="Camada 1">
      <g>
        <path d="M186.65,159.83c-2.66,8.79-8.41,14-17.69,14s-14.55-5.65-17.64-14.1c-2.54,0-5.17-.05-7.79,0-.37,0-.9.68-1.06,1.14-2.83,8.18-8.86,12.87-16.8,13-7.73.13-14.58-4.76-17.45-12.58a2.06,2.06,0,0,0-2.29-1.65c-16.63.05-33.26,0-49.89,0-.95,0-1.68-.08-2.1,1.24-2.61,8.07-8.72,12.78-16.57,13A18.23,18.23,0,0,1,20,161.89c-.64-1.7-1.39-2.29-3.17-2.17a32,32,0,0,1-6.71-.14,11.85,11.85,0,0,1-10-11.83c-.1-14.46,0-28.92,0-43.38a14,14,0,0,1,.8-4.17q6.47-19.59,13-39.15c2.12-6.34,6.25-9.29,13-9.29H52.71c8.19,0,13.22,5,13.23,13.17v59.2H79.33V115c0-3.53,0-7.06,0-10.59.1-9.45,7.08-16.67,16.07-16.8,7.15-.1,16.86,6,16.87,16.66q0,9.36,0,18.73c0,.34,0,.67.08,1.3h2.38q36,0,72.08,0c6.78,0,12.18,4.09,12.81,10.36a73.63,73.63,0,0,1,0,14.62c-.58,5.85-5.65,10.09-11.52,10.44ZM50.41,71.76c-8.82,0-17.42,0-26,.06-.51,0-1.26.88-1.47,1.49-2.07,6-4.06,11.92-6.06,17.89l-5.07,15H50.41ZM27.2,155.93a9.73,9.73,0,0,0,9.92,9.69c5.11,0,10-4.67,10-9.59,0-5.11-4.75-9.94-9.9-10A10.12,10.12,0,0,0,27.2,155.93ZM179,155.85a9.59,9.59,0,0,0-9.56-9.83,10,10,0,0,0-10.05,9.87,9.81,9.81,0,0,0,19.61,0Zm-53.81,9.77c5.12,0,9.64-4.11,9.59-8.66-.06-5.71-4.66-10.52-10.05-10.51-5.18,0-9.57,4.2-9.56,9.12A9.8,9.8,0,0,0,125.21,165.62Zm-81.39-40.1v0c.68,0,1.36,0,2,0,2.61-.09,4.17-1.55,4.21-3.93a4.27,4.27,0,0,0-4-4.29,32.85,32.85,0,0,0-4.86,0,4,4,0,0,0-3.57,4.21,3.82,3.82,0,0,0,3.77,4C42.2,125.57,43,125.52,43.82,125.52ZM96,101a4,4,0,0,0-4.21,3.74c0,2.78,1.87,4.93,4.31,4.91a4.55,4.55,0,0,0,4.43-4.39A4.48,4.48,0,0,0,96,101Z" fill="#101010"/>
        <path d="M171.88,28,115.63,89.67c-6.25-7.55-14.17-10.76-24.09-9.19a11.48,11.48,0,0,1,3.92-7.76l31.61-28.8Q143.5,29,159.87,14a4.54,4.54,0,0,0,1.28-2.57A13.15,13.15,0,0,1,172.34.12a13,13,0,0,1,13.5,7.75,12,12,0,0,1-4,14.88,4.64,4.64,0,0,0-2.06,4.36c.07,11.07.17,22.14,0,33.2-.08,5,1.79,8.65,5.33,12a25.17,25.17,0,0,1,5.42,7.23c2.77,5.74,1.33,12.32-3.16,16.89a16.52,16.52,0,0,1-18,3.78A15.75,15.75,0,0,1,159.43,86c-.05-2.62,1.48-4.44,3.86-4.59,2.64-.16,4.21,1.3,4.46,4.15A7.77,7.77,0,0,0,174,92.87a8,8,0,0,0,8.78-4,7.82,7.82,0,0,0-2.16-9.55c-6-5.21-9-11.6-8.83-19.68C172.06,49.29,171.88,39,171.88,28Z" fill="#101010"/>
      </g>
    </g>
  </g>
</svg>
